<svg width="24" height="24" viewBox="0 0 24 24" fill="none" xmlns="http://www.w3.org/2000/svg">
<g id="fi-rr-eye-crossed" clip-path="url(#clip0_2350_2140)">
<path id="Vector" d="M23.2708 9.41934C22.3681 7.94106 21.2293 6.62059 19.8998 5.51034L22.6998 2.71034C22.882 2.52173 22.9828 2.26913 22.9805 2.00694C22.9782 1.74474 22.873 1.49393 22.6876 1.30852C22.5022 1.12311 22.2514 1.01794 21.9892 1.01566C21.727 1.01338 21.4744 1.11418 21.2858 1.29634L18.2408 4.34534C16.3532 3.22416 14.1952 2.6398 11.9998 2.65534C5.80881 2.65534 2.28081 6.89334 0.728807 9.41934C0.249335 10.1948 -0.00463867 11.0886 -0.00463867 12.0003C-0.00463867 12.9121 0.249335 13.8058 0.728807 14.5813C1.63156 16.0596 2.7703 17.3801 4.09981 18.4903L1.29981 21.2903C1.2043 21.3826 1.12811 21.4929 1.07571 21.6149C1.0233 21.7369 0.99571 21.8682 0.994557 22.0009C0.993403 22.1337 1.0187 22.2654 1.06899 22.3883C1.11927 22.5112 1.19352 22.6228 1.28741 22.7167C1.3813 22.8106 1.49296 22.8849 1.61585 22.9352C1.73875 22.9854 1.87043 23.0107 2.00321 23.0096C2.13599 23.0084 2.26721 22.9808 2.38921 22.9284C2.51122 22.876 2.62156 22.7998 2.71381 22.7043L5.76581 19.6523C7.65107 20.7733 9.80648 21.3587 11.9998 21.3453C18.1908 21.3453 21.7188 17.1073 23.2708 14.5813C23.7503 13.8058 24.0043 12.9121 24.0043 12.0003C24.0043 11.0886 23.7503 10.1948 23.2708 9.41934ZM2.43281 13.5343C2.14794 13.0734 1.99706 12.5422 1.99706 12.0003C1.99706 11.4585 2.14794 10.9273 2.43281 10.4663C3.76681 8.30034 6.78181 4.65534 11.9998 4.65534C13.6601 4.64604 15.297 5.04617 16.7658 5.82034L14.7528 7.83334C13.7927 7.19594 12.6417 6.91033 11.495 7.02498C10.3484 7.13963 9.27667 7.64748 8.46181 8.46234C7.64695 9.2772 7.1391 10.3489 7.02445 11.4956C6.9098 12.6422 7.19541 13.7933 7.83281 14.7533L5.52281 17.0633C4.29791 16.0731 3.25264 14.8793 2.43281 13.5343ZM14.9998 12.0003C14.9998 12.796 14.6837 13.559 14.1211 14.1217C13.5585 14.6843 12.7955 15.0003 11.9998 15.0003C11.5543 14.9986 11.115 14.896 10.7148 14.7003L14.6998 10.7153C14.8955 11.1155 14.9981 11.5548 14.9998 12.0003ZM8.99981 12.0003C8.99981 11.2047 9.31588 10.4416 9.87849 9.87902C10.4411 9.31641 11.2042 9.00034 11.9998 9.00034C12.4453 9.00206 12.8846 9.10463 13.2848 9.30034L9.29981 13.2853C9.1041 12.8851 9.00153 12.4458 8.99981 12.0003ZM21.5668 13.5343C20.2328 15.7003 17.2178 19.3453 11.9998 19.3453C10.3395 19.3546 8.70257 18.9545 7.23381 18.1803L9.24681 16.1673C10.2069 16.8047 11.3579 17.0903 12.5046 16.9757C13.6512 16.861 14.7229 16.3532 15.5378 15.5383C16.3527 14.7235 16.8605 13.6518 16.9752 12.5051C17.0898 11.3584 16.8042 10.2074 16.1668 9.24734L18.4768 6.93734C19.7017 7.92762 20.747 9.12138 21.5668 10.4663C21.8517 10.9273 22.0026 11.4585 22.0026 12.0003C22.0026 12.5422 21.8517 13.0734 21.5668 13.5343Z" fill="#1D1A27"/>
</g>
<defs>
<clipPath id="clip0_2350_2140">
<rect width="24" height="24" fill="#1D1A27"/>
</clipPath>
</defs>
</svg>
